<?xml version="1.0" encoding="utf-8"?>
<!-- Generator: Adobe Illustrator 25.0.0, SVG Export Plug-In . SVG Version: 6.00 Build 0)  -->
<svg version="1.1" id="Ebene_1" xmlns="http://www.w3.org/2000/svg" xmlns:xlink="http://www.w3.org/1999/xlink" x="0px" y="0px"
	 viewBox="0 0 100 100" style="enable-background:new 0 0 100 100;" xml:space="preserve">
<style type="text/css">
	.st0{fill:#FD441D;}
	.st1{fill:none;stroke:#FD441D;stroke-miterlimit:10;}
</style>
<g id="voll">
	<path id="_x31_" class="st0" d="M74.29,13.79l3.33-4.58c-7.18-4.78-15.66-7.75-24.8-8.27v5.68C60.72,7.11,68.05,9.68,74.29,13.79z"
		/>
	<path id="_x32_" class="st0" d="M91.61,35.55L97,33.8c-3.03-8.31-8.2-15.6-14.85-21.19l-3.34,4.59
		C84.51,22.08,88.97,28.38,91.61,35.55z"/>
	<path id="_x33_" class="st0" d="M94.34,50.85c0,4.19-0.6,8.23-1.68,12.07l5.39,1.75c1.27-4.39,1.96-9.03,1.96-13.82
		c0-4.01-0.49-7.9-1.38-11.63l-5.4,1.76C93.94,44.16,94.34,47.46,94.34,50.85z"/>
	<path id="_x34_" class="st0" d="M77.74,85.41l3.33,4.58c6.58-5.24,11.83-12.09,15.11-19.97l-5.4-1.75
		C87.89,75,83.38,80.88,77.74,85.41z"/>
	<path id="_x35_" class="st0" d="M52.83,95.09v5.68c8.64-0.48,16.69-3.17,23.62-7.51l-3.33-4.58
		C67.14,92.34,60.23,94.63,52.83,95.09z"/>
	<path id="_x36_" class="st0" d="M26.88,88.68l-3.33,4.58c6.93,4.34,14.98,7.03,23.62,7.51v-5.68
		C39.77,94.63,32.86,92.34,26.88,88.68z"/>
	<path id="_x37_" class="st0" d="M9.23,68.27l-5.4,1.75c3.28,7.87,8.52,14.73,15.11,19.97l3.33-4.58
		C16.62,80.88,12.11,75,9.23,68.27z"/>
	<path id="_x38_" class="st0" d="M5.66,50.85c0-3.4,0.4-6.7,1.12-9.88l-5.4-1.76C0.49,42.96,0,46.85,0,50.85
		c0,4.8,0.69,9.43,1.96,13.82l5.39-1.75C6.26,59.09,5.66,55.04,5.66,50.85z"/>
	<path id="_x39_" class="st0" d="M21.18,17.2l-3.34-4.59C11.2,18.2,6.03,25.48,3,33.8l5.39,1.75C11.03,28.38,15.49,22.08,21.18,17.2
		z"/>
	<path id="_x31_0" class="st0" d="M47.17,6.61V0.94c-9.13,0.51-17.61,3.49-24.8,8.27l3.33,4.58C31.95,9.68,39.28,7.11,47.17,6.61z"
		/>
</g>
<g id="halb">
	<path id="_x31__1_" class="st0" d="M52.83,0.94v5.68c3.89,0.25,7.64,1,11.2,2.19l1.75-5.39C61.67,2.05,57.33,1.19,52.83,0.94z"/>
	<path id="_x32__1_" class="st0" d="M82.15,12.6l-3.34,4.59c2.86,2.45,5.4,5.26,7.56,8.35l4.58-3.33
		C88.45,18.64,85.49,15.41,82.15,12.6z"/>
	<path id="_x33__1_" class="st0" d="M100,50.85c0-4.01-0.49-7.9-1.38-11.63l-5.4,1.76c0.73,3.18,1.12,6.48,1.12,9.88
		c0,0.38-0.01,0.75-0.02,1.12h5.66C99.99,51.6,100,51.23,100,50.85z"/>
	<path id="_x34__1_" class="st0" d="M90.77,68.27c-1.44,3.35-3.28,6.5-5.46,9.36l4.58,3.32c2.53-3.34,4.65-7.01,6.29-10.93
		L90.77,68.27z"/>
	<path id="_x35__1_" class="st0" d="M76.45,93.26l-3.33-4.58c-3.03,1.86-6.3,3.36-9.75,4.45l1.75,5.38
		C69.14,97.23,72.94,95.46,76.45,93.26z"/>
	<path id="_x36__1_" class="st0" d="M47.17,100.77v-5.68c-3.65-0.23-7.18-0.91-10.54-1.97l-1.75,5.38
		C38.79,99.75,42.91,100.53,47.17,100.77z"/>
	<path id="_x37__1_" class="st0" d="M18.93,89.99l3.33-4.58c-2.83-2.27-5.37-4.89-7.57-7.78l-4.58,3.32
		C12.66,84.32,15.63,87.36,18.93,89.99z"/>
	<path id="_x38__1_" class="st0" d="M1.96,64.68l5.39-1.75c-0.99-3.5-1.57-7.16-1.66-10.95H0.02C0.12,56.37,0.79,60.63,1.96,64.68z"
		/>
	<path id="_x39__1_" class="st0" d="M3,33.8l5.39,1.75c1.32-3.57,3.09-6.93,5.23-10l-4.58-3.33C6.55,25.77,4.51,29.65,3,33.8z"/>
	<path id="_x31_0_1_" class="st0" d="M22.37,9.21l3.33,4.58c3.16-2.08,6.61-3.76,10.27-4.99l-1.75-5.39
		C30,4.82,26.02,6.78,22.37,9.21z"/>
</g>
<g id="Ebene_1_1_">
	<path class="st1" d="M91.61,35.55L97,33.8c-3.03-8.31-8.2-15.6-14.85-21.19l-3.34,4.59C84.51,22.08,88.97,28.38,91.61,35.55z"/>
	<path class="st1" d="M74.29,13.79l3.33-4.58c-7.18-4.78-15.66-7.75-24.8-8.27v5.68C60.72,7.11,68.05,9.68,74.29,13.79z"/>
	<path class="st1" d="M94.34,50.85c0,4.19-0.6,8.23-1.68,12.07l5.39,1.75c1.27-4.39,1.96-9.03,1.96-13.82
		c0-4.01-0.49-7.9-1.38-11.63l-5.4,1.76C93.94,44.16,94.34,47.46,94.34,50.85z"/>
	<path class="st1" d="M47.17,6.61V0.94c-9.13,0.51-17.61,3.49-24.8,8.27l3.33,4.58C31.95,9.68,39.28,7.11,47.17,6.61z"/>
	<path class="st1" d="M9.23,68.27l-5.4,1.75c3.28,7.87,8.52,14.73,15.11,19.97l3.33-4.58C16.62,80.88,12.11,75,9.23,68.27z"/>
	<path class="st1" d="M26.88,88.68l-3.33,4.58c6.93,4.34,14.98,7.03,23.62,7.51v-5.68C39.77,94.63,32.86,92.34,26.88,88.68z"/>
	<path class="st1" d="M52.83,95.09v5.68c8.64-0.48,16.69-3.17,23.62-7.51l-3.33-4.58C67.14,92.34,60.23,94.63,52.83,95.09z"/>
	<path class="st1" d="M5.66,50.85c0-3.4,0.4-6.7,1.12-9.88l-5.4-1.76C0.49,42.96,0,46.85,0,50.85c0,4.8,0.69,9.43,1.96,13.82
		l5.39-1.75C6.26,59.09,5.66,55.04,5.66,50.85z"/>
	<path class="st1" d="M77.74,85.41l3.33,4.58c6.58-5.24,11.83-12.09,15.11-19.97l-5.4-1.75C87.89,75,83.38,80.88,77.74,85.41z"/>
	<path class="st1" d="M21.18,17.2l-3.34-4.59C11.2,18.2,6.03,25.48,3,33.8l5.39,1.75C11.03,28.38,15.49,22.08,21.18,17.2z"/>
</g>
</svg>
